# xmcd
#
# Track frame offsets:
#	225
#	12937
#	31962
#	42164
#	53163
#	66931
#	80114
#	93098
#	109339
#	124236
#	139129
#	155990
#	167638
#	185859
#	199799
#
# Disc length: 2888 seconds
#
# Revision: 1
# Processed by: cddbd v1.5.2PL0 Copyright (c) Steve Scherf et al.
# Submitted via: audiograbber 1.83.01
#
DISCID=d90b450f
DTITLE=Dickson, Kim - Smokey Mountain Queen
DYEAR=1900
DGENRE=
TTITLE0=Tired of Blaming You
TTITLE1=The Words That go Unspoken
TTITLE2=No Account Man
TTITLE3=Leavin on Your Mind
TTITLE4=If  I Were Only Her Tonight
TTITLE5=Here I Am again
TTITLE6='57 Chevrolet
TTITLE7=Somewhere Between
TTITLE8=The Danger Zone
TTITLE9=He's Gone Crazy
TTITLE10=Love Me Like You Used To
TTITLE11=Strange
TTITLE12=I Couldn't Care Less
TTITLE13=A Safe Place To Land
TTITLE14=Smokey Mountain Queen
EXTD=
EXTT0=
EXTT1=
EXTT2=
EXTT3=
EXTT4=
EXTT5=
EXTT6=
EXTT7=
EXTT8=
EXTT9=
EXTT10=
EXTT11=
EXTT12=
EXTT13=
EXTT14=
PLAYORDER=
